HIERARCHY
ROOT Hips
{
	OFFSET -0.001795 -0.223333 0.028219
	CHANNELS 6 Xposition Yposition Zposition Zrotation Yrotation Xrotation 
	JOINT LeftUpLeg
	{
		OFFSET 0.069520 -0.091406 -0.006815
		CHANNELS 3 Zrotation Yrotation Xrotation
		JOINT LeftLeg
		{
			OFFSET 0.034277 -0.375199 -0.004496
			CHANNELS 3 Zrotation Yrotation Xrotation
			JOINT LeftFoot
			{
				OFFSET -0.013596 -0.397961 -0.043693
				CHANNELS 3 Zrotation Yrotation Xrotation
				JOINT LeftToe
				{
					OFFSET 0.026358 -0.055791 0.119288
					CHANNELS 3 Zrotation Yrotation Xrotation
					End Site
					{
						OFFSET 0.000000 0.000000 0.000000
					}
				}
			}
		}
	}
	JOINT RightUpLeg
	{
		OFFSET -0.067670 -0.090522 -0.004320
		CHANNELS 3 Zrotation Yrotation Xrotation
		JOINT RightLeg
		{
			OFFSET -0.038290 -0.382569 -0.008850
			CHANNELS 3 Zrotation Yrotation Xrotation
			JOINT RightFoot
			{
				OFFSET 0.015774 -0.398415 -0.042312
				CHANNELS 3 Zrotation Yrotation Xrotation
				JOINT RightToe
				{
					OFFSET -0.025372 -0.048144 0.123348
					CHANNELS 3 Zrotation Yrotation Xrotation
					End Site
					{
						OFFSET 0.000000 0.000000 0.000000
					}
				}
			}
		}
	}
	JOINT Spine
	{
		OFFSET -0.002533 0.108963 -0.026696
		CHANNELS 3 Zrotation Yrotation Xrotation
		JOINT Spine1
		{
			OFFSET 0.005487 0.135180 0.001092
			CHANNELS 3 Zrotation Yrotation Xrotation
			JOINT Spine2
			{
				OFFSET 0.001457 0.052922 0.025425
				CHANNELS 3 Zrotation Yrotation Xrotation
				JOINT Neck
				{
					OFFSET -0.002778 0.213870 -0.042857
					CHANNELS 3 Zrotation Yrotation Xrotation
					JOINT Head
					{
						OFFSET 0.005152 0.064970 0.051349
						CHANNELS 3 Zrotation Yrotation Xrotation
						End Site
						{
							OFFSET 0.000000 0.000000 0.000000
						}
					}
				}
				JOINT LeftShoulder
				{
					OFFSET 0.078845 0.121749 -0.034090
					CHANNELS 3 Zrotation Yrotation Xrotation
					JOINT LeftArm
					{
						OFFSET 0.090977 0.030469 -0.008868
						CHANNELS 3 Zrotation Yrotation Xrotation
						JOINT LeftForeArm
						{
							OFFSET 0.259612 -0.012772 -0.027456
							CHANNELS 3 Zrotation Yrotation Xrotation
							JOINT LeftHand
							{
								OFFSET 0.249234 0.008986 -0.001171
								CHANNELS 3 Zrotation Yrotation Xrotation
								End Site
								{
									OFFSET 0.000000 0.000000 0.000000
								}
							}
						}
					}
				}
				JOINT RightShoulder
				{
					OFFSET -0.081759 0.118833 -0.038615
					CHANNELS 3 Zrotation Yrotation Xrotation
					JOINT RightArm
					{
						OFFSET -0.096012 0.032551 -0.009143
						CHANNELS 3 Zrotation Yrotation Xrotation
						JOINT RightForeArm
						{
							OFFSET -0.253742 -0.013329 -0.021401
							CHANNELS 3 Zrotation Yrotation Xrotation
							JOINT RightHand
							{
								OFFSET -0.255298 0.007772 -0.005559
								CHANNELS 3 Zrotation Yrotation Xrotation
								End Site
								{
									OFFSET 0.000000 0.000000 0.000000
								}
							}
						}
					}
				}
			}
		}
	}
}
MOTION
Frames: 10
Frame Time: 0.050000
0.000000 0.607525 0.000000 -2.809479 -4.537421 23.319913 9.785157 2.321948 58.079839 -3.192906 2.523913 -71.202045 8.212999 20.484938 113.651213 0.000000 0.000000 0.000000 -18.399447 6.703027 53.430887 12.967755 5.150386 -79.211253 -36.816044 -21.834089 124.116620 0.000000 0.000000 0.000000 1.031742 1.746918 -26.733147 0.074656 2.300782 -61.836166 0.746808 -0.487401 67.943271 7.840156 2.852453 -95.118368 0.000000 0.000000 0.000000 -13.960301 12.942775 -5.202232 -52.547029 9.750648 -19.517619 139.895229 60.401816 132.543924 0.000000 0.000000 0.000000 27.671553 -11.735501 -7.688247 59.024912 7.468483 -12.767402 -11.905950 -72.753434 17.391586 0.000000 0.000000 0.000000 
-0.001638 0.610346 0.000348 -1.861287 -5.754275 22.944670 9.519014 2.996598 58.758500 -4.939038 1.709721 -71.273677 9.083556 20.680686 113.460236 0.000000 0.000000 0.000000 -19.155854 7.734619 54.216270 12.188156 4.885723 -80.731951 -36.893711 -21.079122 127.757769 0.000000 0.000000 0.000000 -2.059981 1.406908 -26.380390 1.766695 2.882994 -65.085101 -1.070115 -3.541279 70.400978 3.084478 3.899244 -99.356640 0.000000 0.000000 0.000000 -16.014851 16.180567 -6.511566 -50.552573 12.907787 -20.458024 132.371833 55.851217 119.260127 0.000000 0.000000 0.000000 23.583625 -11.504165 -8.306566 59.970430 8.689599 -12.562729 -22.691663 -73.432409 24.584127 0.000000 0.000000 0.000000 
-0.002749 0.617001 0.000608 -2.732078 -7.970407 23.066080 8.889305 4.358811 59.056658 -6.064319 1.542316 -72.379276 14.317943 21.450607 114.143859 0.000000 0.000000 0.000000 -20.117378 9.115242 52.716564 13.072949 6.025988 -80.746206 -38.296803 -21.745134 124.952422 0.000000 0.000000 0.000000 -1.215754 2.013959 -29.722603 7.549224 3.373004 -59.618879 -3.569715 1.581036 68.054178 6.569763 2.978153 -97.674470 0.000000 0.000000 0.000000 -14.661365 17.463991 -7.952143 -49.911651 16.174266 -20.973107 129.033723 51.949068 107.425689 0.000000 0.000000 0.000000 24.522825 -8.933094 -5.507104 57.403124 11.773144 -10.746992 -4.807945 -72.194988 10.862616 0.000000 0.000000 0.000000 
-0.004060 0.621631 0.000049 -2.978462 -9.417809 22.861202 7.441449 6.038681 60.250526 -5.838857 1.767191 -71.756869 13.931641 21.569125 112.253807 0.000000 0.000000 0.000000 -21.340398 10.300357 51.632377 13.621242 6.597118 -80.290802 -31.405827 -20.536899 128.972308 0.000000 0.000000 0.000000 -0.768299 2.226706 -29.605022 5.196046 3.123761 -57.635830 -1.043279 -0.542700 65.067661 0.354768 3.490779 -93.432596 0.000000 0.000000 0.000000 -11.905337 19.153942 -8.669050 -50.970561 22.347185 -21.959238 124.306641 46.741199 94.393188 0.000000 0.000000 0.000000 21.367969 -10.799148 -7.376466 61.093600 12.279334 -9.546138 -13.893168 -70.623634 15.704946 0.000000 0.000000 0.000000 
-0.005432 0.630225 -0.000857 -2.780941 -8.987620 22.412276 6.898033 6.132830 59.916669 -4.994458 2.164019 -72.087609 15.374868 21.692911 112.819708 0.000000 0.000000 0.000000 -20.502613 9.593407 51.748356 13.512239 6.582034 -80.565969 -36.144070 -20.841618 128.624853 0.000000 0.000000 0.000000 -0.880447 2.213058 -30.149839 4.547901 2.930616 -57.240416 -0.715461 -1.402488 66.085937 -2.331838 3.757810 -95.098678 0.000000 0.000000 0.000000 -11.777531 20.125706 -9.204674 -48.788501 26.023684 -22.353615 120.405101 40.991970 81.144170 0.000000 0.000000 0.000000 23.443816 -9.939206 -7.328034 59.458120 13.489845 -9.109029 -14.536962 -69.462075 15.622999 0.000000 0.000000 0.000000 
-0.006889 0.635637 -0.001869 -3.129938 -9.774665 22.070892 5.973770 7.057962 60.076540 -3.752523 2.994617 -72.614184 14.629992 21.640206 113.662292 0.000000 0.000000 0.000000 -21.738227 10.466907 50.661563 14.862856 7.513222 -79.637503 -38.289619 -20.891912 128.872896 0.000000 0.000000 0.000000 -0.436276 2.326344 -29.733820 5.586581 3.036981 -56.354691 0.453942 -0.280441 65.406457 -5.379366 3.733226 -95.045507 0.000000 0.000000 0.000000 -9.686742 20.618371 -9.621441 -46.984570 30.305087 -22.463649 118.651296 35.045125 68.049690 0.000000 0.000000 0.000000 23.909756 -10.683131 -7.664238 58.841537 13.822447 -8.675848 -15.753813 -67.158373 15.623712 0.000000 0.000000 0.000000 
-0.008573 0.641287 -0.003398 -3.097942 -9.718700 22.279693 4.404250 7.961325 59.715306 -1.228789 4.299811 -71.557900 11.693625 21.323861 112.127635 0.000000 0.000000 0.000000 -21.771949 10.499654 50.779162 15.985313 8.343549 -80.301711 -40.557973 -21.215946 128.385536 0.000000 0.000000 0.000000 -0.468906 2.366771 -30.150752 4.706661 2.932525 -56.147459 1.710916 -0.914523 65.802346 -7.353736 3.850150 -95.517297 0.000000 0.000000 0.000000 -6.567301 21.292056 -9.896026 -46.821491 35.223464 -23.450174 116.609591 28.713604 56.102974 0.000000 0.000000 0.000000 23.877906 -10.997132 -7.946050 59.471145 15.361795 -7.960932 -17.119793 -66.799204 16.581350 0.000000 0.000000 0.000000 
-0.010412 0.643977 -0.004903 -3.279358 -9.522779 21.683348 3.020119 8.807709 60.074535 1.842259 5.780209 -70.683563 8.505951 20.857621 111.000619 0.000000 0.000000 0.000000 -22.219720 10.752456 51.249822 17.264875 8.998840 -79.565551 -42.215477 -21.571562 127.408599 0.000000 0.000000 0.000000 -1.130516 2.199571 -29.882838 6.240479 2.862988 -55.272713 1.260026 -0.443297 65.832591 -7.658219 3.731806 -97.059049 0.000000 0.000000 0.000000 -5.936772 21.962176 -10.343783 -44.433376 37.906357 -23.060863 118.039416 25.255110 50.681489 0.000000 0.000000 0.000000 25.231538 -10.473710 -7.624111 58.162885 17.015244 -7.268701 -15.772747 -66.105988 15.543845 0.000000 0.000000 0.000000 
-0.012544 0.646044 -0.006326 -3.436326 -9.908792 22.182960 1.651049 9.923638 60.281503 4.308760 7.133585 -70.591876 5.034018 20.315897 110.050597 0.000000 0.000000 0.000000 -22.494661 11.130885 51.311344 17.096579 9.063127 -80.645139 -41.887996 -21.012484 129.621884 0.000000 0.000000 0.000000 -1.095989 2.303328 -30.273044 6.053166 3.170937 -57.129483 1.479662 -0.724080 68.528473 -10.824521 3.728252 -99.141596 0.000000 0.000000 0.000000 -4.449659 22.529525 -10.718634 -44.174058 41.115275 -23.998028 117.664252 23.031082 46.732365 0.000000 0.000000 0.000000 24.968214 -10.496429 -7.487054 58.355203 18.808413 -7.103401 -14.732728 -66.617259 15.601748 0.000000 0.000000 0.000000 
-0.014999 0.647364 -0.006660 -3.405849 -9.245195 22.032952 1.534316 9.848640 60.861052 5.938418 7.772300 -70.035704 2.717870 19.720668 107.693379 0.000000 0.000000 0.000000 -22.164310 10.883784 52.591133 17.638197 9.392857 -81.600235 -43.131979 -21.214632 129.408584 0.000000 0.000000 0.000000 -1.353939 2.174733 -30.207237 6.006847 3.069070 -57.229130 1.173781 -1.201891 68.727361 -10.234327 3.695596 -99.923800 0.000000 0.000000 0.000000 -3.592430 22.341593 -10.602252 -43.664968 43.845286 -24.527342 117.710636 21.979871 44.193029 0.000000 0.000000 0.000000 25.186170 -10.173832 -7.299732 58.054961 18.719347 -7.296489 -13.431276 -66.051328 14.552800 0.000000 0.000000 0.000000 
